<svg width="200" height="200" viewBox="0 0 200 200" fill="none" xmlns="http://www.w3.org/2000/svg">
<rect width="200" height="200" rx="100" fill="#0F0F0F"/>
<path d="M41 74H53.1019V102.839L65.0582 86.8337H79.9927L63.5764 106.57L80.131 126.172H65.1347L53.1056 109.676V126.172H41V74Z" fill="white"/>
<path d="M99.7757 126.887C88.0597 126.887 79.6313 119.056 79.6313 106.459C79.6313 93.8616 87.925 86.0303 99.7757 86.0303C111.626 86.0303 119.636 93.7159 119.636 105.822C119.636 106.965 119.563 108.17 119.425 109.375H91.777C92.2066 114.578 95.4141 116.988 99.3534 116.988C102.787 116.988 104.713 115.28 105.71 113.136H118.719C116.793 120.894 109.722 126.876 99.783 126.876L99.7721 126.887H99.7757ZM91.8534 102.614H107.145C107.145 98.2705 103.715 95.7766 99.641 95.7766C95.567 95.7766 92.5707 98.1977 91.8534 102.614Z" fill="white"/>
<path d="M163.986 86.5976L140.379 139.574L128.354 139.593L135.89 122.477L120.468 86.583H132.89L142.535 108.952L151.757 86.583L163.997 86.5939H163.986V86.5976Z" fill="white"/>
<path d="M163.692 74H65.391V77.6408H163.692V74Z" fill="white"/>
</svg>
